<svg width="40" height="39" viewBox="0 0 40 39" fill="none" xmlns="http://www.w3.org/2000/svg">
<g clip-path="url(#clip0_214_866)">
<path d="M16.3343 7.09333C16.8796 7.62709 16.5675 8.5317 15.857 8.74821L5.50716 8.79858C3.62617 9.15335 2.28715 10.5756 2.13605 12.4652C2.50831 19.2198 1.65431 26.462 2.13605 33.1598C2.26744 34.9947 3.2583 36.3999 5.09658 36.9068C12.4136 37.2788 19.8149 36.9583 27.1626 37.0708C29.1202 36.9186 30.5874 35.745 30.9957 33.8565L31.0516 23.7289C31.3461 22.6421 32.7355 22.6249 33.0224 23.7171C32.7705 26.9776 33.3453 30.685 33.0026 33.8918C32.7081 36.6485 30.2688 38.7868 27.4911 39.0001L5.59147 38.9947C2.70648 38.6721 0.489369 36.5285 0.166382 33.6946C0.569294 26.7096 -0.355871 19.1694 0.166382 12.2498C0.362364 9.64531 2.47875 7.20587 5.18089 6.86932C8.41952 6.46632 12.3578 7.11905 15.6708 6.83502C15.9106 6.82323 16.169 6.93041 16.3365 7.0944L16.3343 7.09333Z" fill="url(#paint0_linear_214_866)"/>
<path d="M32.0024 0.0021397C32.3583 -0.0289428 32.6605 0.265805 32.8181 0.549835C33.417 1.62486 33.6984 3.34726 34.2743 4.48338C35.0856 6.08467 37.9268 6.22722 39.4421 7.03429C39.9271 7.2926 40.1822 7.7374 39.8505 8.22936C39.5187 8.72132 36.1794 9.58628 35.3976 9.97856C33.7849 10.7878 33.5878 13.6463 32.7699 15.1233C32.4656 15.6731 31.7922 15.6742 31.3849 15.2433C30.7379 13.9432 30.4247 12.2958 29.7842 11.0225C29.5291 10.5155 29.2609 10.2529 28.7441 10.0043C27.4456 9.37834 25.7617 9.05787 24.4325 8.43729C24.0175 8.08145 23.9946 7.42551 24.4851 7.12004C25.5066 6.48338 27.5343 6.15219 28.7113 5.57663C30.2944 4.80171 30.4729 1.94105 31.3127 0.513394C31.4769 0.234723 31.64 0.034294 32.0024 0.00321151V0.0021397Z" fill="url(#paint1_linear_214_866)"/>
<path d="M11.0446 26.9208C10.4611 27.477 10.5257 28.7343 9.75377 29.1394C8.72569 29.6796 7.54979 28.8393 7.76877 27.7364L12.0815 17.3773C13.3132 15.9004 14.8077 16.2991 15.6245 17.9154C17.1737 20.9808 18.2511 24.6432 19.658 27.7943C19.8419 28.8918 18.6343 29.7085 17.6478 29.118C16.7533 28.5821 17.0938 26.9358 15.8281 26.6121C15.2697 26.4695 12.5906 26.4888 11.938 26.5617C11.6501 26.5939 11.2516 26.7225 11.0446 26.9197V26.9208ZM14.1573 20.372C13.9723 20.1908 13.4938 20.1758 13.3001 20.3934C13.1906 20.5156 12.2096 23.1673 12.1515 23.4481C11.8942 24.6817 12.7658 24.7814 13.8048 24.745C14.5482 24.7193 15.5358 24.6003 15.3661 23.6432C14.9697 23.0944 14.5033 20.7107 14.1573 20.372Z" fill="url(#paint2_linear_214_866)"/>
<path d="M23.9012 16.5101C25.0268 16.3301 25.491 17.195 25.5742 18.1446C25.8501 21.285 25.3684 24.8167 25.5611 27.9999C25.3224 29.7095 22.9783 29.7148 22.8283 28.1221C22.5118 24.7631 23.0702 20.9228 22.8392 17.5123C22.9082 17.0846 23.4611 16.5809 23.9012 16.5112V16.5101Z" fill="url(#paint3_linear_214_866)"/>
</g>
<defs>
<linearGradient id="paint0_linear_214_866" x1="16.5585" y1="6.73389" x2="16.5585" y2="39.0001" gradientUnits="userSpaceOnUse">
<stop stop-color="#D81100"/>
<stop offset="1" stop-color="#101763"/>
</linearGradient>
<linearGradient id="paint1_linear_214_866" x1="32.0598" y1="-0.00012207" x2="32.0598" y2="15.5524" gradientUnits="userSpaceOnUse">
<stop stop-color="#D81100"/>
<stop offset="1" stop-color="#101763"/>
</linearGradient>
<linearGradient id="paint2_linear_214_866" x1="13.7094" y1="16.4601" x2="13.7094" y2="29.3158" gradientUnits="userSpaceOnUse">
<stop stop-color="#D81100"/>
<stop offset="1" stop-color="#101763"/>
</linearGradient>
<linearGradient id="paint3_linear_214_866" x1="24.1951" y1="16.4862" x2="24.1951" y2="29.2998" gradientUnits="userSpaceOnUse">
<stop stop-color="#D81100"/>
<stop offset="1" stop-color="#101763"/>
</linearGradient>
<clipPath id="clip0_214_866">
<rect width="40" height="39" fill="white"/>
</clipPath>
</defs>
</svg>
