<svg width="1094" height="264" viewBox="0 0 1094 264" fill="none" xmlns="http://www.w3.org/2000/svg">
<path d="M126.879 263.479C104.373 263.479 85.0497 259.501 68.909 251.544C52.7683 243.587 39.583 233.244 29.353 220.513C19.3503 207.782 11.962 193.915 7.188 178.911C2.414 163.907 0.0270007 149.471 0.0270007 135.604V128.102C0.0270007 112.643 2.414 97.412 7.188 82.408C12.1893 67.404 19.805 53.764 30.035 41.488C40.265 29.212 53.223 19.4366 68.909 12.162C84.8223 4.65998 103.577 0.908984 125.174 0.908984C147.68 0.908984 167.231 5.00099 183.826 13.185C200.649 21.1417 214.061 32.5083 224.064 47.285C234.067 61.8343 240.091 78.8843 242.137 98.435H193.374C191.555 87.0683 187.463 77.5203 181.098 69.791C174.96 61.8343 167.117 55.9237 157.569 52.059C148.021 47.967 137.223 45.921 125.174 45.921C112.898 45.921 101.986 48.0807 92.438 52.4C82.89 56.492 74.9333 62.4027 68.568 70.132C62.2027 77.8613 57.315 86.9547 53.905 97.412C50.7223 107.869 49.131 119.463 49.131 132.194C49.131 144.47 50.7223 155.837 53.905 166.294C57.315 176.751 62.3163 185.958 68.909 193.915C75.5017 201.644 83.572 207.669 93.12 211.988C102.895 216.307 114.148 218.467 126.879 218.467C145.52 218.467 161.206 213.92 173.937 204.827C186.895 195.506 194.738 182.548 197.466 165.953H246.229C243.956 183.685 237.931 199.939 228.156 214.716C218.381 229.493 204.968 241.314 187.918 250.18C170.868 259.046 150.522 263.479 126.879 263.479ZM269.699 257V8.06999H317.098V153.336H308.914C308.914 134.695 311.301 118.895 316.075 105.937C320.849 92.979 327.897 83.09 337.217 76.27C346.765 69.45 358.814 66.04 373.363 66.04H375.409C396.551 66.04 412.578 73.3147 423.49 87.864C434.402 102.413 439.858 123.555 439.858 151.29V257H392.459V146.857C392.459 135.036 389.049 125.715 382.229 118.895C375.637 112.075 366.884 108.665 355.972 108.665C344.378 108.665 334.944 112.53 327.669 120.259C320.622 127.761 317.098 137.65 317.098 149.926V257H269.699ZM560.04 263.479C544.126 263.479 530.145 260.751 518.097 255.295C506.275 249.839 496.386 242.564 488.43 233.471C480.7 224.15 474.79 213.807 470.698 202.44C466.833 191.073 464.901 179.479 464.901 167.658V161.179C464.901 148.903 466.833 137.082 470.698 125.715C474.79 114.121 480.7 103.891 488.43 95.025C496.386 85.9317 506.162 78.7707 517.756 73.542C529.35 68.086 542.762 65.358 557.994 65.358C577.999 65.358 594.708 69.791 608.121 78.657C621.761 87.2957 631.991 98.776 638.811 113.098C645.631 127.193 649.041 142.424 649.041 158.792V175.842H485.02V146.857H619.374L604.711 161.179C604.711 149.358 603.006 139.241 599.596 130.83C596.186 122.419 590.957 115.94 583.91 111.393C577.09 106.846 568.451 104.573 557.994 104.573C547.536 104.573 538.67 106.96 531.396 111.734C524.121 116.508 518.551 123.442 514.687 132.535C511.049 141.401 509.231 152.086 509.231 164.589C509.231 176.183 511.049 186.527 514.687 195.62C518.324 204.486 523.894 211.533 531.396 216.762C538.898 221.763 548.446 224.264 560.04 224.264C571.634 224.264 581.068 221.991 588.343 217.444C595.617 212.67 600.278 206.873 602.324 200.053H645.972C643.244 212.784 638.015 223.923 630.286 233.471C622.556 243.019 612.667 250.407 600.619 255.636C588.797 260.865 575.271 263.479 560.04 263.479ZM710.501 257L652.531 71.837H701.294L756.877 257H710.501ZM724.482 257V218.126H774.609V257H724.482ZM743.237 257L790.977 71.837H836.671L786.544 257H743.237ZM968.688 257V202.099H960.845V141.06C960.845 130.375 958.231 122.419 953.002 117.19C947.773 111.961 939.703 109.347 928.791 109.347C923.108 109.347 916.288 109.461 908.331 109.688C900.374 109.915 892.304 110.256 884.12 110.711C876.163 110.938 869.002 111.279 862.637 111.734V71.496C867.866 71.0413 873.776 70.5867 880.369 70.132C886.962 69.6773 893.668 69.45 900.488 69.45C907.535 69.2227 914.128 69.109 920.266 69.109C939.362 69.109 955.162 71.6097 967.665 76.611C980.396 81.6123 989.944 89.4553 996.309 100.14C1002.9 110.825 1006.2 124.806 1006.2 142.083V257H968.688ZM909.013 261.774C895.6 261.774 883.779 259.387 873.549 254.613C863.546 249.839 855.703 243.019 850.02 234.153C844.564 225.287 841.836 214.602 841.836 202.099C841.836 188.459 845.132 177.32 851.725 168.681C858.545 160.042 867.979 153.563 880.028 149.244C892.304 144.925 906.626 142.765 922.994 142.765H965.96V171.068H922.312C911.4 171.068 902.989 173.796 897.078 179.252C891.395 184.481 888.553 191.301 888.553 199.712C888.553 208.123 891.395 214.943 897.078 220.172C902.989 225.401 911.4 228.015 922.312 228.015C928.905 228.015 934.929 226.878 940.385 224.605C946.068 222.104 950.729 218.012 954.366 212.329C958.231 206.418 960.39 198.462 960.845 188.459L972.439 201.758C971.302 214.716 968.12 225.628 962.891 234.494C957.89 243.36 950.842 250.18 941.749 254.954C932.883 259.501 921.971 261.774 909.013 261.774ZM1045.72 257V8.06999H1093.12V257H1045.72ZM1022.53 43.534V8.06999H1093.12V43.534H1022.53Z" fill="#DBDBDB"/>
</svg>
