<svg width="18" height="19" viewBox="0 0 18 19" fill="none" xmlns="http://www.w3.org/2000/svg">
<mask id="mask0_7807_3671" style="mask-type:alpha" maskUnits="userSpaceOnUse" x="0" y="0" width="18" height="19">
<rect y="0.79248" width="17.5806" height="17.5806" fill="#D9D9D9"/>
</mask>
<g mask="url(#mask0_7807_3671)">
<path d="M14.6136 16.1757C13.0875 16.1757 11.5797 15.843 10.0902 15.1776C8.60075 14.5122 7.24558 13.5691 6.02471 12.3482C4.80383 11.1274 3.86071 9.77219 3.19533 8.28273C2.52995 6.79326 2.19727 5.28548 2.19727 3.75939C2.19727 3.53963 2.27052 3.3565 2.41702 3.20999C2.56353 3.06349 2.74666 2.99023 2.96642 2.99023H5.93314C6.10406 2.99023 6.25667 3.04823 6.39097 3.16421C6.52527 3.28019 6.60462 3.41754 6.62904 3.57625L7.10518 6.14009C7.1296 6.33543 7.12349 6.50025 7.08687 6.63454C7.05024 6.76884 6.98309 6.88482 6.88542 6.98249L5.10905 8.77718C5.35323 9.2289 5.64318 9.66537 5.97892 10.0866C6.31466 10.5078 6.68398 10.9137 7.08687 11.3044C7.46534 11.6829 7.86212 12.0339 8.27722 12.3574C8.69232 12.6809 9.13183 12.977 9.59577 13.2456L11.3172 11.5241C11.4271 11.4143 11.5705 11.3319 11.7476 11.2769C11.9246 11.222 12.0986 11.2067 12.2695 11.2311L14.7967 11.7439C14.9676 11.7927 15.108 11.8813 15.2179 12.0094C15.3278 12.1376 15.3827 12.2811 15.3827 12.4398V15.4065C15.3827 15.6263 15.3095 15.8094 15.163 15.9559C15.0164 16.1024 14.8333 16.1757 14.6136 16.1757Z" fill="#D81100"/>
</g>
</svg>
