<svg width="23" height="23" viewBox="0 0 23 23" fill="none" xmlns="http://www.w3.org/2000/svg">
<path d="M11.5386 1.9165C6.30609 1.9165 2.04151 6.18109 2.04151 11.4136C2.04151 13.0907 2.48234 14.7198 3.30651 16.1573L1.96484 21.0832L6.99609 19.7607C8.38568 20.5178 9.94776 20.9203 11.5386 20.9203C16.7711 20.9203 21.0357 16.6557 21.0357 11.4232C21.0357 8.88359 20.0486 6.49734 18.2565 4.70525C16.4644 2.90359 14.0782 1.9165 11.5386 1.9165ZM11.5482 3.51692C13.6565 3.51692 15.6307 4.34109 17.1257 5.83609C18.6111 7.33109 19.4353 9.31484 19.4353 11.4232C19.4353 15.774 15.8894 19.3103 11.5386 19.3103C10.1203 19.3103 8.73068 18.9365 7.52318 18.2082L7.23568 18.0453L4.24568 18.8311L5.04109 15.9178L4.84943 15.6111C4.06359 14.3748 3.64193 12.9086 3.64193 11.4136C3.65151 7.06275 7.18776 3.51692 11.5482 3.51692ZM8.17484 7.02442C8.02151 7.02442 7.76276 7.08192 7.54234 7.3215C7.33151 7.56109 6.70859 8.14567 6.70859 9.30525C6.70859 10.4744 7.56151 11.5957 7.66693 11.7586C7.80109 11.9215 9.35359 14.3173 11.7398 15.3332C12.3053 15.5919 12.7461 15.7357 13.0911 15.8411C13.6565 16.0232 14.174 15.9944 14.5861 15.9369C15.0461 15.8698 15.9853 15.3619 16.1865 14.8061C16.3878 14.2503 16.3878 13.7807 16.3303 13.6753C16.2632 13.5794 16.1098 13.5219 15.8703 13.4165C15.6307 13.2823 14.4615 12.7073 14.2507 12.6307C14.0303 12.554 13.8961 12.5157 13.714 12.7457C13.5607 12.9853 13.1007 13.5219 12.9665 13.6753C12.8228 13.8382 12.6886 13.8573 12.4586 13.7423C12.2094 13.6178 11.4428 13.3686 10.5419 12.5636C9.83276 11.9311 9.36318 11.1548 9.21943 10.9153C9.10443 10.6853 9.20984 10.5415 9.32484 10.4361C9.43026 10.3307 9.58359 10.1582 9.67943 10.0144C9.80401 9.88025 9.84234 9.77484 9.91901 9.6215C9.99568 9.45859 9.95734 9.32442 9.89984 9.20942C9.84234 9.104 9.36318 7.91567 9.16193 7.44609C8.97026 6.98609 8.77859 7.04359 8.62526 7.034C8.49109 7.034 8.33776 7.02442 8.17484 7.02442Z" fill="white"/>
</svg>
